/* XPM */
static const char *const stop_xpm[] = {
/* columns rows colors chars-per-pixel */
"16 16 2 1 ",
"  c #880015",
". c white",
/* pixels */
"................",
"................",
"...           ..",
"...           ..",
"...           ..",
"...           ..",
"...           ..",
"...           ..",
"...           ..",
"...           ..",
"...           ..",
"...           ..",
"...           ..",
"................",
"................",
"................"
};
