/* XPM */
static const char *const add_xpm[] = {
/* columns rows colors chars-per-pixel */
"10 10 2 1 ",
"  c #DDDDDD",
"X c None",
/* pixels */
"XXXX  XXXX",
"XXXX  XXXX",
"XXXX  XXXX",
"XXXX  XXXX",
"          ",
"          ",
"XXXX  XXXX",
"XXXX  XXXX",
"XXXX  XXXX",
"XXXX  XXXX"
};
