/* XPM */
static const char *const file_new_xpm[] = {
/* columns rows colors chars-per-pixel */
"12 12 2 1 ",
//DDDDDD
"  c #55AADD",
". c None",
/* pixels */
".        ...",
".         ..",
".          .",
".          .",
".          .",
".          .",
".          .",
".          .",
".          .",
".          .",
".          .",
".          ."
};
