/* XPM */
static const char *const folder_xpm[] = {
/* columns rows colors chars-per-pixel */
"12 12 2 1 ",
"  c #ffbb44",
". c None",
/* pixels */
"............",
"      ......",
"       .....",
"            ",
"            ",
"            ",
"            ",
"            ",
"            ",
"            ",
"            ",
"............"
};
