/* XPM */
static const char *const pause_xpm[] = {
/* columns rows colors chars-per-pixel */
"10 13 3 1 ",
"  c #DDDDDD",
". c gray87",
"X c None",
/* pixels */
"XXXXXXXXXX",
"    XX   .",
"    XX    ",
"    XX    ",
"    XX    ",
"    XX    ",
"    XX    ",
"    XX    ",
"    XX    ",
"    XX    ",
"    XX    ",
"    XX    ",
"....XX...."
};
