/* XPM */
static const char *const pause_xpm[] = {
/* columns rows colors chars-per-pixel */
"12 12 2 1 ",
"  c #DDDDDD",
"X c None",
/* pixels */
"X    XX    X",
"X    XX    X",
"X    XX    X",
"X    XX    X",
"X    XX    X",
"X    XX    X",
"X    XX    X",
"X    XX    X",
"X    XX    X",
"X    XX    X",
"X    XX    X",
"X    XX    X"
};
