/* XPM */
static const char *const pause_xpm[] = {
/* columns rows colors chars-per-pixel */
"16 16 2 1 ",
"  c #3F48CC",
". c white",
/* pixels */
"................",
"................",
"...   ...   ....",
"...   ...   ....",
"...   ...   ....",
"...   ...   ....",
"...   ...   ....",
"...   ...   ....",
"...   ...   ....",
"...   ...   ....",
"...   ...   ....",
"...   ...   ....",
"...   ...   ....",
"...   ...   ....",
"................",
"................"
};
