/* XPM */
static const char *const play_xpm[] = {
/* columns rows colors chars-per-pixel */
"12 12 2 1 ",
"  c #DDDDDD",
"X c None",
/* pixels */
"  XXXXXXXXXX",
"    XXXXXXXX",
"      XXXXXX",
"        XXXX",
"         XXX",
"           X",
"           X",
"         XXX",
"        XXXX",
"      XXXXXX",
"    XXXXXXXX",
"  XXXXXXXXXX"
};
