/* XPM */
static const char *const play_xpm[] = {
/* columns rows colors chars-per-pixel */
"11 12 4 1 ",
"  c #DDDDDD",
". c gray87",
"X c #DFDFDF",
"o c None",
/* pixels */
"..ooooooooo",
".. .ooooooo",
"    ..ooooo",
"    ....ooo",
"    .    oo",
"    .    ..",
"        ...",
"        .oo",
"    .. .ooo",
"    ..ooooo",
"..  ooooooo",
"..ooooooooo"
};
