/* XPM */
static char *_eff96be34294779e5a0bce0b64ffcd6[] = {
/* columns rows colors chars-per-pixel */
"12 12 3 1 ",
"  c #DDDDDD",
". c gray87",
"X c None",
/* pixels */
"XXXXXX.XXXXX",
"XXXXXX...XXX",
"XXXXXXX.. XX",
"XXXXXXXX...X",
"XXXX...    .",
"XX. .... . X",
"X...XXXX..XX",
"X..XXXX..XXX",
". XXXX..XXXX",
"..XXXX.XXXXX",
"..XXXXXXXXXX",
"..XXXXXXXXXX"
};
