/* XPM */
static const char *const file_save_xpm[] = {
/* columns rows colors chars-per-pixel */
"12 12 2 1 ",
"  c #DDDDDD",
"X c None",
/* pixels */
"XXXXXXXXXXXX",
"     XX   XX",
"     XX    X",
"     XX     ",
"     XX     ",
"     XX     ",
"   XXXXXX   ",
"    XXXX    ",
"     XX     ",
"            ",
"            ",
"            "
};
