/* XPM */
static char *fcac68a2a1f34b6c8895c5cfab77357d[] = {
/* columns rows colors chars-per-pixel */
"12 13 3 1 ",
"  c #DDDDDD",
". c gray87",
"X c None",
/* pixels */
"XXXXXXXXXXXX",
"     XX  .XX",
"     XX    X",
"     XX     ",
"     XX     ",
"   . XX .   ",
"   XXXXXX   ",
"    XXXX    ",
"     XX     ",
"            ",
"            ",
"            ",
"............"
};
