/* XPM */
static const char *const stop_xpm[] = {
/* columns rows colors chars-per-pixel */
"12 13 4 1 ",
"  c #DDDDDD",
". c gray87",
"X c #DFDFDF",
"o c None",
/* pixels */
"oooooooooooo",
"o.. .... ..o",
"..    .     ",
"..         .",
"            ",
"            ",
"           .",
"           .",
"            ",
"            ",
".      .   .",
"       .    ",
"o........ .o"
};
