/* XPM */
static char *_4e2371b339747c5a07f23e2ec6b0ae8[] = {
/* columns rows colors chars-per-pixel */
"12 12 3 1 ",
"  c #DDDDDD",
". c gray87",
"X c None",
/* pixels */
"XXXXX XXXXXX",
"XXX   XXXXXX",
"XX   XXXXXXX",
"X   XXXXXXXX",
".     ..XXXX",
"X    .    XX",
"XX .XXXX   X",
"XXX .XXXX  X",
"XXXX .XXXX .",
"XXXXX XXXX  ",
"XXXXXXXXXX  ",
"XXXXXXXXXX.."
};
