/* XPM */
static const char *const verify_xpm[] = {
/* columns rows colors chars-per-pixel */
"10 12 2 1 ",
"  c #DDDDDD",
"X c None",
/* pixels */
"        XX",
"         X",
"          ",
"          ",
"      X   ",
"  XX XXX  ",
"  XXXXX   ",
"   XXX    ",
"    X     ",
"          ",
"          ",
"          "
};
