<?xml version="1.0" encoding="UTF-8"?> <svg xmlns="http://www.w3.org/2000/svg" width="171" height="48" viewBox="0 0 171 48"> <defs> <linearGradient id="a" x1="15.901%" x2="81.676%" y1="14.087%" y2="86.975%"> <stop offset="0%" stop-color="#49BAE2"></stop> <stop offset="50.343%" stop-color="#3F66D1"></stop> <stop offset="100%" stop-color="#8742BC"></stop> </linearGradient> </defs> <g fill="none" fill-rule="evenodd"> <path fill="#333" d="M149.163 32.6c-.476.307-1.234.673-2.183.673-1.638 0-3.822-1.637-3.822-5.455 0-4.363 2.184-6 3.276-6 1.057 0 2.113 1.136 2.73 1.942v8.84zm3.822-20.6c-2.313.818-6.005 1.636-6.005 1.636v1.091h.546c.904 0 1.637.733 1.637 1.637v4.752c-.616-.162-1.672-.389-2.73-.389-3.82 0-7.642 3.818-7.642 8.182 0 4.364 3.275 7.091 6.005 7.091 1.225 0 3.366-1.526 4.367-2.295V36c2.603-.863 6.005-1.636 6.005-1.636v-1.091h-2.183V12zm-18.016 20.727V12c-2.312.818-6.005 1.636-6.005 1.636v1.091h.546c.904 0 1.638.733 1.638 1.637v16.363c0 .905-.734 1.637-1.638 1.637h-.546v1.09h8.19v-1.09h-.547a1.637 1.637 0 0 1-1.638-1.637zm-9.826 0v-12c-2.313.818-5.46 1.091-5.46 1.091v1.091c.905 0 1.638.733 1.638 1.636v8.182c0 .905-.733 1.637-1.637 1.637h-.546v1.09h8.189v-1.09h-.546a1.637 1.637 0 0 1-1.638-1.637zm-1.91-14.182a2.455 2.455 0 1 0-2.457-2.454c0 1.356 1.1 2.454 2.456 2.454zm-9.009 13.091v-9.272h3.276v-1.637h-3.276v-4.909l-3.82 2.727v2.182h-1.639l-.546 1.637h2.184v9.818c0 2.182 1.638 3.818 3.276 3.818 1.358 0 4.367-1.636 4.367-1.636v-1.091s-.808.272-1.91.272c-.869 0-1.912-.818-1.912-1.909zm50.225 1.481c-.353.23-.742.428-1.092.428-1.015 0-2.184-.818-2.184-2.454 0-1.449 1.372-2.528 3.276-3.536v5.562zm4.913.156c-.546 0-1.092-.546-1.092-1.637v-7.09c0-2.728-2.73-3.819-3.821-3.819-1.291 0-3.154.08-4.913 1.091-1.497.86-2.184 1.81-2.184 2.727 0 1.091 1.092 1.637 1.638 1.637 1.638 0 1.638-1.091 1.638-1.637 0-1.09 1.364-2.727 2.456-2.727 1.092 0 1.365 1.091 1.365 2.727v1.826a56.142 56.142 0 0 0-6.005 2.538c-1.092.546-1.638 1.636-1.638 2.727 0 2.254 2.403 4.364 4.367 4.364.8 0 2.327-1.106 3.324-2.153.22 1.312 1.177 2.153 2.136 2.153h1.091L171 33.818v-1.09s-1.092.545-1.638.545zm-68.24-.156c-.352.23-.741.428-1.091.428-1.016 0-2.184-.818-2.184-2.454 0-1.449 1.371-2.528 3.275-3.536v5.562zm3.822-1.48v-7.092c0-2.727-2.73-3.818-3.822-3.818-1.29 0-3.154.08-4.913 1.091-1.496.86-2.183 1.81-2.183 2.727 0 1.091 1.091 1.637 1.637 1.637 1.638 0 1.638-1.091 1.638-1.637 0-1.09 1.365-2.727 2.457-2.727 1.091 0 1.364 1.091 1.364 2.727v1.826a56.142 56.142 0 0 0-6.005 2.538c-1.091.546-1.637 1.636-1.637 2.727 0 2.254 2.403 4.364 4.367 4.364.799 0 2.326-1.106 3.323-2.153.22 1.312 1.177 2.153 2.136 2.153h1.092l3.275-2.182v-1.09s-1.091.545-1.637.545-1.092-.546-1.092-1.637zm-15.877 1.137l-.453-15.818a1.637 1.637 0 0 1 1.638-1.683h1.044v-1.091h-6.551L78.518 28.18a.34.34 0 0 1-.625-.009l-5.704-13.99h-7.097v1.092h.996c.94 0 1.688.791 1.634 1.73l-.904 15.818a1.638 1.638 0 0 1-1.636 1.543H64v1.09h8.189v-1.09h-1.092a1.637 1.637 0 0 1-1.638-1.637v-15l6.895 17.223a.805.805 0 0 0 1.494-.004l6.897-17.491v15.272c0 .905-.734 1.637-1.638 1.637h-1.092v1.09h9.827v-1.09h-1.138a1.637 1.637 0 0 1-1.637-1.59z"></path> <path fill="url(#a)" d="M24.037 4.5C19.491 1.875 8.877 2.257 3.252 12l3.897 2.25C3.333 16.453-.783 23.42 1.32 31.362L10.767 15c.007-.01.015-.021.021-.033.042-.07.088-.138.135-.206.023-.036.046-.072.072-.107.045-.062.094-.12.143-.179.032-.038.062-.077.095-.113.043-.048.09-.093.135-.139.044-.043.086-.087.131-.128.04-.035.081-.068.122-.102.056-.046.112-.093.17-.136.037-.027.077-.052.116-.078.065-.045.13-.088.197-.128l.035-.023c.033-.018.066-.033.098-.05a4.14 4.14 0 0 1 .19-.098c.057-.026.114-.05.171-.073.053-.021.106-.043.16-.062a4.716 4.716 0 0 1 .342-.104 4.1 4.1 0 0 1 .219-.047 3.921 3.921 0 0 1 .353-.05l.15-.011a3.932 3.932 0 0 1 .373 0h.001c.058.002.115.007.173.012a3.123 3.123 0 0 1 .352.05c.068.014.135.028.202.045a4.96 4.96 0 0 1 .344.103c.058.02.116.044.174.069.052.021.105.042.156.066.07.033.137.069.205.105.029.016.059.028.088.045l.031.02c.073.043.142.09.211.137.035.023.07.046.103.07.062.046.122.095.182.145.037.031.075.061.111.093.048.044.093.09.139.136.043.044.087.086.128.132.035.037.066.078.1.118a3.8 3.8 0 0 1 .139.174l.075.11c.045.067.09.135.132.204.006.012.015.022.02.033l1.084 1.876-4.33 7.499-6.61 11.45C8.614 41.07 14.164 48 24.036 48v-4.5c3.997 2.307 12.68 2.288 18.543-4.367l-6.038-10.458h.002c-1.339-2.318.852-7.87 2.483-10.696l6.3 10.911c2.314-4.275 3.181-10.505-.506-16.89l-3.897 2.25C40.924 9 35.287 0 24.037 0v4.5zm4.968 28.63c-1.63-2.825-3.823-8.38-2.484-10.698L30.811 15l.022-.033c.042-.07.088-.138.134-.206.024-.036.047-.072.073-.107.045-.062.094-.12.143-.179.032-.038.062-.077.095-.113.043-.048.09-.093.136-.139.043-.043.085-.087.13-.128.04-.035.081-.068.122-.102.056-.046.111-.093.17-.136.037-.027.077-.052.116-.078a3.55 3.55 0 0 1 .197-.128c.012-.008.023-.016.036-.023.032-.018.065-.033.097-.05.063-.034.126-.067.19-.098.057-.026.114-.05.172-.073.053-.021.104-.043.158-.062a4.086 4.086 0 0 1 .342-.104c.073-.018.147-.034.22-.047a3.85 3.85 0 0 1 .352-.05l.152-.011a3.962 3.962 0 0 1 .373 0c.058.002.115.007.173.012a3.695 3.695 0 0 1 .352.05c.067.014.135.028.202.045.052.013.103.028.155.043a3.5 3.5 0 0 1 .363.128c.052.022.104.043.157.068.069.032.136.068.204.104.028.016.058.028.087.045l.032.02c.072.043.142.09.21.137l.104.07c.063.046.122.095.18.145.038.031.077.061.113.094.048.043.093.089.138.135.043.044.088.086.129.132.034.037.066.078.1.118a3.8 3.8 0 0 1 .138.174c.027.036.05.073.075.11.047.067.091.135.133.204.006.012.014.022.021.033l1.082 1.874-4.33 7.498.002.005-.002-.002-6.774 11.735c-.006.01-.013.017-.018.026a3.725 3.725 0 0 1-.26.387l-.043.051c-.078.1-.164.194-.254.286a3.568 3.568 0 0 1-.344.308c-.035.028-.068.057-.104.084a3.81 3.81 0 0 1-.35.23l-.01.005c-.104.06-.212.109-.321.158-.043.02-.085.045-.13.062-.046.02-.094.032-.142.049-.415.15-.843.23-1.268.23h-.008a3.72 3.72 0 0 1-1.259-.228c-.05-.018-.103-.03-.153-.05-.041-.018-.082-.042-.123-.06-.11-.05-.221-.1-.327-.161l-.009-.005a3.797 3.797 0 0 1-.35-.23c-.036-.027-.07-.057-.106-.085a3.499 3.499 0 0 1-.242-.209 3.824 3.824 0 0 1-.353-.383l-.044-.052a3.624 3.624 0 0 1-.26-.387l-.017-.026-4.292-7.432c-1.338-2.319.854-7.873 2.484-10.698l5.055 8.755 4.33 7.5.638-1.105z"></path> </g> </svg> 