<svg xmlns="http://www.w3.org/2000/svg" width="128" height="128" viewBox="0 0 128 128">
    <defs>
        <linearGradient id="a" x1="15.901%" x2="81.676%" y1="14.087%" y2="86.975%">
            <stop offset="0%" stop-color="#49BAE2"/>
            <stop offset="50.343%" stop-color="#3F66D1"/>
            <stop offset="100%" stop-color="#8742BC"/>
        </linearGradient>
    </defs>
    <path fill="url(#a)" fill-rule="evenodd" d="M64.099 12C51.975 4.999 23.673 6.018 8.673 31.999L19.065 38C8.888 43.876-2.09 62.452 3.52 83.633l25.192-43.632c.017-.03.038-.057.056-.088.11-.188.233-.37.358-.551.063-.095.125-.192.192-.285.122-.164.25-.32.383-.476.084-.102.164-.206.252-.303.116-.127.24-.248.362-.369.116-.116.228-.234.349-.342.104-.094.216-.181.324-.271.15-.125.298-.249.453-.363.1-.073.205-.14.309-.21.174-.118.348-.235.527-.341.033-.02.062-.042.094-.061.086-.049.175-.087.26-.133.168-.09.336-.179.508-.26.15-.071.303-.133.456-.196.14-.056.282-.114.424-.164a12.577 12.577 0 0 1 .911-.278c.195-.048.39-.09.586-.127.122-.022.242-.045.363-.063a11.083 11.083 0 0 1 .981-.099 10.484 10.484 0 0 1 .996-.001c.154.007.307.019.46.034a8.33 8.33 0 0 1 .939.135c.18.034.359.072.538.117.14.035.277.075.415.115.168.051.334.102.5.16.158.056.313.119.468.183.138.058.279.114.416.178.186.087.365.182.546.279.077.042.157.076.234.12.029.017.055.038.084.055.193.113.378.237.562.363.092.063.186.123.275.189.166.121.325.253.485.386.098.083.2.163.296.248.127.116.247.24.37.363.115.116.233.229.342.35.092.101.177.21.265.317.127.152.254.304.37.462.07.096.134.196.2.293.123.18.244.36.353.545.018.032.04.059.057.089l2.887 5.001L37.372 65 19.745 95.532C22.975 109.52 37.773 128 64.099 128v-12.001c10.658 6.154 33.813 6.103 49.447-11.644l-16.1-27.887.004-.001c-3.57-6.182 2.273-20.989 6.62-28.522l16.8 29.095c6.173-11.4 8.485-28.014-1.346-45.041L109.132 38c0-14.001-15.034-38-45.033-38v12zm13.248 76.346c-4.348-7.532-10.194-22.344-6.624-28.526l11.442-19.819c.017-.03.039-.057.057-.088.112-.188.233-.37.357-.551.065-.095.126-.192.194-.285.12-.164.25-.32.38-.476.087-.102.166-.206.254-.303.116-.127.24-.248.363-.369.115-.116.228-.234.347-.342.105-.094.217-.181.325-.271.15-.125.298-.249.454-.363.099-.073.205-.14.309-.21.173-.118.347-.235.527-.341.032-.02.06-.042.094-.061.085-.049.173-.087.26-.133.167-.09.335-.179.506-.26.152-.071.305-.133.458-.196.14-.056.279-.114.422-.164.182-.065.363-.122.547-.176.12-.035.242-.07.365-.101.196-.049.39-.091.588-.128.12-.023.24-.045.36-.063a10.758 10.758 0 0 1 .982-.099 10.564 10.564 0 0 1 .996-.001c.154.007.307.019.46.034a9.854 9.854 0 0 1 .938.134c.18.035.36.073.54.118.139.035.275.075.413.115.168.05.337.102.502.16.158.056.31.118.465.182.14.058.28.115.419.18.184.086.364.181.544.278.077.042.157.076.234.12.029.017.056.038.085.056.192.112.377.236.562.362.09.062.186.123.275.189.167.121.324.252.482.385.1.083.204.164.299.25.127.115.247.238.368.361.116.116.235.23.344.351.092.101.177.21.265.317.127.152.254.304.37.462.07.096.134.196.2.293.124.18.243.36.354.545.017.032.039.059.057.089l2.884 4.996-11.545 19.996.004.013-.004-.006-18.066 31.293c-.015.025-.033.046-.048.071a9.934 9.934 0 0 1-.692 1.032c-.037.048-.077.089-.114.135-.21.265-.437.518-.677.762a9.515 9.515 0 0 1-.918.822c-.093.075-.183.153-.278.223-.297.219-.607.426-.933.615l-.025.012c-.278.16-.568.291-.858.422-.115.053-.227.119-.344.166-.125.051-.254.083-.38.129a9.964 9.964 0 0 1-3.383.613l-.01-.001-.01.001a9.922 9.922 0 0 1-3.358-.606c-.135-.048-.274-.082-.407-.136-.111-.046-.22-.11-.33-.159a9.764 9.764 0 0 1-.87-.429l-.025-.012a10.124 10.124 0 0 1-.932-.613c-.097-.072-.19-.153-.284-.229a9.33 9.33 0 0 1-.646-.555 10.196 10.196 0 0 1-.942-1.021c-.038-.048-.08-.091-.116-.14a9.663 9.663 0 0 1-.692-1.031c-.015-.025-.034-.046-.048-.071L43.996 76.475c-3.57-6.183 2.276-20.995 6.624-28.527l13.479 23.345 11.547 20 1.7-2.947z"/>
</svg>
