<svg xmlns="http://www.w3.org/2000/svg" width="196" height="44" viewBox="0 0 196 44">
    <path fill="#333" fill-rule="evenodd" d="M156 37.765c-.872.564-2.26 1.235-4 1.235-3 0-7-3-7-10 0-8 4-11 6-11 1.937 0 3.871 2.082 5 3.56v16.205zM163 0c-4.236 1.5-11 3-11 3v2h1a3 3 0 0 1 3 3v8.712c-1.129-.296-3.063-.712-5-.712-7 0-14 7-14 15s6 13 11 13c2.244 0 6.166-2.797 8-4.207V44c4.768-1.582 11-3 11-3v-2h-4V0zm-33 38V0c-4.236 1.5-11 3-11 3v2h1a3 3 0 0 1 3 3v30a3 3 0 0 1-3 3h-1v2h15v-2h-1a3 3 0 0 1-3-3zm-18 0V16c-4.236 1.5-10 2-10 2v2a3 3 0 0 1 3 3v15a3 3 0 0 1-3 3h-1v2h15v-2h-1a3 3 0 0 1-3-3zm-3.5-26a4.5 4.5 0 1 0 0-9 4.5 4.5 0 0 0 0 9zM92 36V19h6v-3h-6V7l-7 5v4h-3l-1 3h4v18c0 4 3 7 6 7 2.489 0 8-3 8-3v-2s-1.48.5-3.5.5C93.91 39.5 92 38 92 36zm92 2.715c-.646.422-1.359.785-2 .785-1.86 0-4-1.5-4-4.5 0-2.656 2.512-4.634 6-6.483v10.198zm9 .285c-1 0-2-1-2-3V23c0-5-5-7-7-7-2.365 0-5.778.147-9 2-2.741 1.578-4 3.318-4 5 0 2 2 3 3 3 3 0 3-2 3-3 0-2 2.5-5 4.5-5s2.5 2 2.5 5v3.347A102.793 102.793 0 0 0 173 31c-2 1-3 3-3 5 0 4.132 4.402 8 8 8 1.463 0 4.261-2.027 6.088-3.947C184.491 42.458 186.244 44 188 44h2l6-4v-2s-2 1-3 1zm-125-.285c-.646.422-1.359.785-2 .785-1.86 0-4-1.5-4-4.5 0-2.656 2.512-4.634 6-6.483v10.198zM75 36V23c0-5-5-7-7-7-2.365 0-5.778.147-9 2-2.741 1.578-4 3.318-4 5 0 2 2 3 3 3 3 0 3-2 3-3 0-2 2.5-5 4.5-5s2.5 2 2.5 5v3.347A102.793 102.793 0 0 0 57 31c-2 1-3 3-3 5 0 4.132 4.402 8 8 8 1.463 0 4.261-2.027 6.088-3.947C68.491 42.458 70.244 44 72 44h2l6-4v-2s-2 1-3 1-2-1-2-3zm-29.083 2.086l-.829-29A3 3 0 0 1 48.087 6H50V4H38L26.594 29.664a.623.623 0 0 1-1.146-.017L15 4H2v2h1.824a3 3 0 0 1 2.994 3.171l-1.656 29A3.001 3.001 0 0 1 2.166 41H0v2h15v-2h-2a3 3 0 0 1-3-3V10.5l12.63 31.575a1.474 1.474 0 0 0 2.737-.007L38 10v28a3 3 0 0 1-3 3h-2v2h18v-2h-2.084a3 3 0 0 1-2.999-2.914z"/>
</svg>
